<svg width="161" height="44" viewBox="0 0 161 44" fill="none" xmlns="http://www.w3.org/2000/svg">
<path d="M0 0.530032H32.425L29.217 6.08976L3.16763 6.02896L0 0.530032Z" fill="white"/>
<path d="M58.3632 0.5H87.1023L83.9131 6.02896H61.5743L58.3632 0.5Z" fill="white"/>
<path d="M13.5344 5.6834H19.1786V27.1081L13.5344 30.3909V5.6834Z" fill="white"/>
<path d="M69.9971 5.6834H75.6412V27.1081L69.9971 30.3909V5.6834Z" fill="white"/>
<path d="M135.344 7.92957L136.554 0.5L156.423 23.0197L154.753 30.4485L135.344 7.92957Z" fill="white"/>
<path d="M41.5248 0.5H46.9386V27.2809L41.5248 30.4485V0.5Z" fill="white"/>
<path d="M131.14 0.5H136.554V27.3385L131.14 30.4485V0.5Z" fill="white"/>
<path d="M160.167 30.4485H154.753V3.61004L160.167 0.5V30.4485Z" fill="white"/>
<path d="M102.055 0.500335L108.737 0.50028L98.8759 24.6717L90.7291 29.329L102.055 0.500335Z" fill="white"/>
<path d="M108.794 0.530032L102.113 0.529977L111.649 24.6717L119.678 29.329L108.794 0.530032Z" fill="white"/>
<path d="M160.705 41.1847C160.705 41.6762 160.586 42.0947 160.348 42.4403C160.11 42.7782 159.768 43.0393 159.323 43.2236C158.885 43.4079 158.367 43.5 157.768 43.5C157.461 43.5 157.165 43.4846 156.881 43.4539C156.604 43.4232 156.351 43.381 156.121 43.3272C155.89 43.2658 155.687 43.1928 155.51 43.1084V42.1178C155.787 42.2406 156.128 42.352 156.535 42.4518C156.95 42.5516 157.376 42.6015 157.814 42.6015C158.221 42.6015 158.563 42.5478 158.839 42.4403C159.116 42.3328 159.323 42.1792 159.461 41.9795C159.599 41.7799 159.668 41.5457 159.668 41.2769C159.668 41.0081 159.611 40.7816 159.496 40.5973C159.38 40.413 159.181 40.2441 158.897 40.0905C158.62 39.9292 158.232 39.7603 157.733 39.5837C157.38 39.4531 157.069 39.3149 156.8 39.169C156.539 39.0154 156.32 38.8426 156.144 38.6506C155.967 38.4587 155.833 38.2398 155.741 37.9941C155.656 37.7483 155.614 37.4642 155.614 37.1417C155.614 36.704 155.725 36.3315 155.948 36.0244C156.171 35.7095 156.478 35.4676 156.869 35.2987C157.269 35.1298 157.726 35.0453 158.24 35.0453C158.693 35.0453 159.108 35.0875 159.484 35.172C159.86 35.2565 160.202 35.3678 160.509 35.506L160.187 36.393C159.903 36.2701 159.592 36.1664 159.254 36.082C158.924 35.9975 158.578 35.9553 158.217 35.9553C157.872 35.9553 157.584 36.0052 157.353 36.105C157.123 36.2048 156.95 36.3469 156.835 36.5312C156.72 36.7078 156.662 36.9152 156.662 37.1532C156.662 37.4297 156.72 37.66 156.835 37.8443C156.95 38.0286 157.138 38.1937 157.399 38.3396C157.66 38.4855 158.014 38.643 158.459 38.8119C158.943 38.9885 159.35 39.1805 159.68 39.3878C160.018 39.5875 160.271 39.8294 160.44 40.1135C160.617 40.3976 160.705 40.7547 160.705 41.1847Z" fill="white"/>
<path d="M147.9 43.3848H143.304V35.1605H147.9V36.0705H144.341V38.6391H147.693V39.5376H144.341V42.4748H147.9V43.3848Z" fill="white"/>
<path d="M130.928 43.3848V35.1605H131.965V42.4633H135.559V43.3848H130.928Z" fill="white"/>
<path d="M119.451 35.1605C120.135 35.1605 120.707 35.2258 121.168 35.3563C121.636 35.4868 121.985 35.7019 122.216 36.0013C122.454 36.3008 122.573 36.7001 122.573 37.1993C122.573 37.5218 122.511 37.8098 122.389 38.0632C122.273 38.3089 122.097 38.5163 121.859 38.6852C121.628 38.8465 121.344 38.9578 121.006 39.0192V39.0768C121.352 39.1306 121.663 39.2304 121.939 39.3763C122.223 39.5222 122.446 39.7296 122.607 39.9983C122.769 40.2671 122.849 40.6165 122.849 41.0465C122.849 41.5457 122.734 41.9719 122.504 42.3251C122.273 42.6707 121.943 42.9356 121.513 43.1199C121.091 43.2965 120.584 43.3848 119.993 43.3848H117.102V35.1605H119.451ZM119.659 38.6622C120.365 38.6622 120.849 38.5508 121.11 38.3281C121.371 38.0977 121.502 37.7599 121.502 37.3145C121.502 36.8614 121.34 36.5389 121.018 36.3469C120.703 36.1472 120.196 36.0474 119.497 36.0474H118.138V38.6622H119.659ZM118.138 39.5261V42.5094H119.797C120.526 42.5094 121.033 42.3673 121.317 42.0832C121.601 41.7991 121.744 41.4266 121.744 40.9659C121.744 40.6741 121.678 40.4207 121.548 40.2057C121.425 39.9906 121.214 39.8255 120.914 39.7104C120.622 39.5875 120.223 39.5261 119.716 39.5261H118.138Z" fill="white"/>
<path d="M109.178 43.3848H106.206V42.7858L107.174 42.567V35.9898L106.206 35.7595V35.1605H109.178V35.7595L108.211 35.9898V42.567L109.178 42.7858V43.3848Z" fill="white"/>
<path d="M96.7304 43.3848H95.6937V36.0705H93.1251V35.1605H99.2875V36.0705H96.7304V43.3848Z" fill="white"/>
<path d="M84.0387 35.9553C83.601 35.9553 83.2055 36.0321 82.8523 36.1856C82.4991 36.3315 82.1996 36.5504 81.9538 36.8422C81.7081 37.1263 81.52 37.4757 81.3894 37.8904C81.2589 38.2974 81.1936 38.7581 81.1936 39.2726C81.1936 39.9484 81.2973 40.5359 81.5046 41.035C81.7196 41.5341 82.0345 41.9181 82.4492 42.1869C82.8715 42.4556 83.3975 42.59 84.0272 42.59C84.3881 42.59 84.7299 42.5593 85.0524 42.4979C85.3749 42.4364 85.6897 42.3596 85.9969 42.2675V43.166C85.6897 43.2811 85.371 43.3656 85.0408 43.4194C84.7183 43.4731 84.3305 43.5 83.8775 43.5C83.0404 43.5 82.3416 43.3272 81.7811 42.9817C81.2205 42.6361 80.7981 42.1446 80.514 41.5073C80.2376 40.8699 80.0993 40.1212 80.0993 39.2611C80.0993 38.6391 80.1838 38.0709 80.3528 37.5564C80.5294 37.0419 80.7828 36.5965 81.113 36.2202C81.4509 35.8439 81.8655 35.556 82.357 35.3563C82.8485 35.149 83.4129 35.0453 84.0502 35.0453C84.4726 35.0453 84.8796 35.0875 85.2712 35.172C85.6629 35.2565 86.0123 35.3755 86.3194 35.5291L85.9048 36.4045C85.6513 36.2893 85.3672 36.1856 85.0524 36.0935C84.7452 36.0013 84.4073 35.9553 84.0387 35.9553Z" fill="white"/>
<path d="M72.3742 43.3848H67.7782V35.1605H72.3742V36.0705H68.8149V38.6391H72.1668V39.5376H68.8149V42.4748H72.3742V43.3848Z" fill="white"/>
<path d="M55.4024 43.3848V35.1605H56.4391V42.4633H60.0329V43.3848H55.4024Z" fill="white"/>
<path d="M43.0266 43.3848V35.1605H44.0633V42.4633H47.6571V43.3848H43.0266Z" fill="white"/>
<path d="M34.8685 39.2611C34.8685 39.8985 34.7879 40.4783 34.6266 41.0004C34.4653 41.5149 34.2235 41.9603 33.9009 42.3366C33.5861 42.7129 33.1906 43.0009 32.7145 43.2005C32.2461 43.4002 31.7009 43.5 31.0789 43.5C30.4338 43.5 29.8732 43.4002 29.3971 43.2005C28.921 42.9932 28.5256 42.7052 28.2107 42.3366C27.8959 41.9603 27.6617 41.5111 27.5081 40.9889C27.3545 40.4668 27.2777 39.887 27.2777 39.2496C27.2777 38.4049 27.4159 37.6677 27.6924 37.038C27.9688 36.4083 28.3873 35.9169 28.9479 35.5636C29.5162 35.2104 30.2303 35.0338 31.0904 35.0338C31.912 35.0338 32.6032 35.2104 33.1637 35.5636C33.7243 35.9092 34.1467 36.4007 34.4308 37.038C34.7226 37.6677 34.8685 38.4087 34.8685 39.2611ZM28.372 39.2611C28.372 39.9523 28.468 40.5474 28.6599 41.0465C28.8519 41.5457 29.1476 41.9296 29.5469 42.1984C29.9539 42.4672 30.4645 42.6015 31.0789 42.6015C31.7009 42.6015 32.2077 42.4672 32.5993 42.1984C32.9986 41.9296 33.2943 41.5457 33.4863 41.0465C33.6782 40.5474 33.7742 39.9523 33.7742 39.2611C33.7742 38.2244 33.5592 37.4143 33.1292 36.8307C32.6992 36.2394 32.0195 35.9438 31.0904 35.9438C30.4684 35.9438 29.9539 36.0781 29.5469 36.3469C29.1476 36.608 28.8519 36.9881 28.6599 37.4873C28.468 37.9787 28.372 38.57 28.372 39.2611Z" fill="white"/>
<path d="M17.8289 35.9553C17.3912 35.9553 16.9957 36.0321 16.6425 36.1856C16.2892 36.3315 15.9897 36.5504 15.744 36.8422C15.4983 37.1263 15.3101 37.4757 15.1796 37.8904C15.049 38.2974 14.9838 38.7581 14.9838 39.2726C14.9838 39.9484 15.0874 40.5359 15.2948 41.035C15.5098 41.5341 15.8246 41.9181 16.2393 42.1869C16.6617 42.4556 17.1877 42.59 17.8174 42.59C18.1783 42.59 18.52 42.5593 18.8425 42.4979C19.165 42.4364 19.4799 42.3596 19.7871 42.2675V43.166C19.4799 43.2811 19.1612 43.3656 18.831 43.4194C18.5085 43.4731 18.1207 43.5 17.6676 43.5C16.8306 43.5 16.1318 43.3272 15.5712 42.9817C15.0106 42.6361 14.5883 42.1446 14.3042 41.5073C14.0277 40.8699 13.8895 40.1212 13.8895 39.2611C13.8895 38.6391 13.974 38.0709 14.1429 37.5564C14.3195 37.0419 14.5729 36.5965 14.9031 36.2202C15.241 35.8439 15.6557 35.556 16.1472 35.3563C16.6386 35.149 17.203 35.0453 17.8404 35.0453C18.2628 35.0453 18.6697 35.0875 19.0614 35.172C19.453 35.2565 19.8024 35.3755 20.1096 35.5291L19.6949 36.4045C19.4415 36.2893 19.1574 36.1856 18.8425 36.0935C18.5354 36.0013 18.1975 35.9553 17.8289 35.9553Z" fill="white"/>
</svg>
