<svg width="179" height="33" viewBox="0 0 179 33" fill="none" xmlns="http://www.w3.org/2000/svg">
<path d="M0 0.0334507H36.1164L32.5431 6.2261L3.52824 6.15838L0 0.0334507Z" fill="white"/>
<path d="M65.0073 0H97.0181L93.4659 6.15838H68.584L65.0073 0Z" fill="white"/>
<path d="M15.0752 5.77349H21.3619V29.6372L15.0752 33.2938V5.77349Z" fill="white"/>
<path d="M77.9656 5.77349H84.2523V29.6372L77.9656 33.2938V5.77349Z" fill="white"/>
<path d="M150.752 8.27536L152.099 0L174.231 25.0834L172.371 33.3579L150.752 8.27536Z" fill="white"/>
<path d="M46.252 0H52.2821V29.8297L46.252 33.3579V0Z" fill="white"/>
<path d="M146.069 0H152.099V29.8938L146.069 33.3579V0Z" fill="white"/>
<path d="M178.401 33.3579H172.371V3.46409L178.401 0V33.3579Z" fill="white"/>
<path d="M113.674 0.00037343L121.115 0.000311981L110.132 26.9235L101.058 32.1109L113.674 0.00037343Z" fill="white"/>
<path d="M121.179 0.0334507L113.738 0.0333892L124.36 26.9235L133.302 32.1109L121.179 0.0334507Z" fill="white"/>
<path d="M179 45.3164C179 45.8638 178.867 46.3299 178.602 46.7148C178.337 47.0912 177.956 47.382 177.46 47.5873C176.973 47.7925 176.395 47.8952 175.728 47.8952C175.386 47.8952 175.057 47.8781 174.74 47.8439C174.433 47.8096 174.15 47.7626 173.894 47.7027C173.637 47.6343 173.41 47.553 173.214 47.459V46.3556C173.522 46.4924 173.902 46.6165 174.356 46.7276C174.817 46.8388 175.292 46.8944 175.78 46.8944C176.233 46.8944 176.614 46.8346 176.922 46.7148C177.229 46.5951 177.46 46.424 177.614 46.2016C177.768 45.9792 177.845 45.7184 177.845 45.419C177.845 45.1196 177.781 44.8673 177.653 44.662C177.525 44.4567 177.302 44.2686 176.986 44.0975C176.678 43.9179 176.246 43.7297 175.69 43.533C175.296 43.3876 174.95 43.2336 174.651 43.0711C174.36 42.9 174.116 42.7076 173.919 42.4938C173.723 42.2799 173.573 42.0362 173.47 41.7625C173.376 41.4887 173.329 41.1723 173.329 40.813C173.329 40.3255 173.453 39.9107 173.701 39.5685C173.949 39.2178 174.291 38.9484 174.728 38.7602C175.172 38.5721 175.681 38.478 176.254 38.478C176.759 38.478 177.221 38.525 177.64 38.6191C178.059 38.7132 178.44 38.8372 178.782 38.9912L178.423 39.9791C178.106 39.8422 177.76 39.7268 177.383 39.6327C177.016 39.5386 176.631 39.4915 176.229 39.4915C175.844 39.4915 175.523 39.5471 175.266 39.6583C175.01 39.7695 174.817 39.9278 174.689 40.133C174.561 40.3298 174.497 40.5607 174.497 40.8259C174.497 41.1338 174.561 41.3904 174.689 41.5957C174.817 41.8009 175.027 41.9848 175.318 42.1473C175.609 42.3099 176.002 42.4852 176.498 42.6734C177.037 42.8701 177.49 43.0839 177.858 43.3149C178.234 43.5373 178.517 43.8067 178.705 44.1232C178.902 44.4396 179 44.8374 179 45.3164Z" fill="white"/>
<path d="M164.737 47.7669H159.618V38.6063H164.737V39.6198H160.773V42.4809H164.506V43.4817H160.773V46.7533H164.737V47.7669Z" fill="white"/>
<path d="M145.833 47.7669V38.6063H146.988V46.7405H150.991V47.7669H145.833Z" fill="white"/>
<path d="M133.05 38.6063C133.811 38.6063 134.448 38.679 134.962 38.8244C135.483 38.9698 135.872 39.2093 136.129 39.5429C136.394 39.8764 136.527 40.3212 136.527 40.8772C136.527 41.2364 136.458 41.5572 136.321 41.8394C136.193 42.1131 135.996 42.3441 135.731 42.5322C135.475 42.7119 135.158 42.8359 134.782 42.9043V42.9685C135.167 43.0283 135.513 43.1395 135.821 43.302C136.138 43.4646 136.386 43.6955 136.565 43.9949C136.745 44.2942 136.835 44.6834 136.835 45.1624C136.835 45.7184 136.706 46.1931 136.45 46.5865C136.193 46.9714 135.825 47.2665 135.346 47.4718C134.876 47.6685 134.311 47.7669 133.653 47.7669H130.433V38.6063H133.05ZM133.281 42.5066C134.068 42.5066 134.607 42.3826 134.897 42.1345C135.188 41.8779 135.334 41.5016 135.334 41.0055C135.334 40.5008 135.154 40.1416 134.795 39.9278C134.444 39.7054 133.88 39.5942 133.101 39.5942H131.587V42.5066H133.281ZM131.587 43.4688V46.7918H133.435C134.247 46.7918 134.812 46.6336 135.128 46.3171C135.445 46.0006 135.603 45.5858 135.603 45.0726C135.603 44.7476 135.53 44.4653 135.385 44.2258C135.248 43.9863 135.013 43.8024 134.679 43.6741C134.354 43.5373 133.909 43.4688 133.345 43.4688H131.587Z" fill="white"/>
<path d="M121.607 47.7669H118.297V47.0997L119.375 46.8559V39.53L118.297 39.2734V38.6063H121.607V39.2734L120.529 39.53V46.8559L121.607 47.0997V47.7669Z" fill="white"/>
<path d="M107.742 47.7669H106.588V39.6198H103.727V38.6063H110.591V39.6198H107.742V47.7669Z" fill="white"/>
<path d="M93.6058 39.4915C93.1183 39.4915 92.6778 39.5771 92.2843 39.7481C91.8909 39.9107 91.5573 40.1544 91.2836 40.4795C91.0099 40.7959 90.8003 41.1851 90.6549 41.647C90.5095 42.1003 90.4368 42.6135 90.4368 43.1866C90.4368 43.9393 90.5523 44.5936 90.7832 45.1496C91.0227 45.7055 91.3734 46.1332 91.8353 46.4326C92.3057 46.7319 92.8916 46.8816 93.593 46.8816C93.995 46.8816 94.3756 46.8474 94.7348 46.779C95.0941 46.7105 95.4448 46.625 95.7869 46.5224V47.5231C95.4448 47.6514 95.0898 47.7455 94.722 47.8054C94.3628 47.8652 93.9308 47.8952 93.4262 47.8952C92.4939 47.8952 91.7155 47.7027 91.0911 47.3178C90.4667 46.9329 89.9963 46.3855 89.6798 45.6756C89.3719 44.9657 89.2179 44.1317 89.2179 43.1737C89.2179 42.4809 89.312 41.848 89.5002 41.2749C89.6969 40.7018 89.9792 40.2057 90.347 39.7866C90.7233 39.3675 91.1852 39.0468 91.7326 38.8244C92.28 38.5934 92.9087 38.478 93.6186 38.478C94.0891 38.478 94.5424 38.525 94.9786 38.6191C95.4148 38.7132 95.804 38.8458 96.1461 39.0168L95.6843 39.9919C95.402 39.8636 95.0855 39.7481 94.7348 39.6455C94.3927 39.5429 94.0164 39.4915 93.6058 39.4915Z" fill="white"/>
<path d="M80.6133 47.7669H75.4942V38.6063H80.6133V39.6198H76.6489V42.4809H80.3824V43.4817H76.6489V46.7533H80.6133V47.7669Z" fill="white"/>
<path d="M61.7095 47.7669V38.6063H62.8642V46.7405H66.8671V47.7669H61.7095Z" fill="white"/>
<path d="M47.9248 47.7669V38.6063H49.0795V46.7405H53.0824V47.7669H47.9248Z" fill="white"/>
<path d="M38.838 43.1737C38.838 43.8837 38.7482 44.5294 38.5685 45.1111C38.3889 45.6841 38.1195 46.1802 37.7603 46.5993C37.4096 47.0185 36.9691 47.3392 36.4388 47.5616C35.917 47.784 35.3097 47.8952 34.6169 47.8952C33.8984 47.8952 33.274 47.784 32.7437 47.5616C32.2134 47.3307 31.7729 47.0099 31.4223 46.5993C31.0716 46.1802 30.8107 45.6799 30.6396 45.0982C30.4686 44.5166 30.383 43.8708 30.383 43.1609C30.383 42.2201 30.537 41.3989 30.8449 40.6976C31.1528 39.9962 31.619 39.4488 32.2434 39.0553C32.8763 38.6619 33.6718 38.4651 34.6297 38.4651C35.5449 38.4651 36.3147 38.6619 36.9391 39.0553C37.5635 39.4402 38.034 39.9876 38.3504 40.6976C38.6755 41.3989 38.838 42.2243 38.838 43.1737ZM31.6019 43.1737C31.6019 43.9435 31.7088 44.6064 31.9226 45.1624C32.1365 45.7184 32.4658 46.146 32.9105 46.4454C33.3638 46.7448 33.9326 46.8944 34.6169 46.8944C35.3097 46.8944 35.8743 46.7448 36.3105 46.4454C36.7552 46.146 37.0845 45.7184 37.2984 45.1624C37.5122 44.6064 37.6191 43.9435 37.6191 43.1737C37.6191 42.0191 37.3796 41.1167 36.9006 40.4666C36.4217 39.808 35.6647 39.4787 34.6297 39.4787C33.9369 39.4787 33.3638 39.6284 32.9105 39.9278C32.4658 40.2186 32.1365 40.642 31.9226 41.1979C31.7088 41.7453 31.6019 42.4039 31.6019 43.1737Z" fill="white"/>
<path d="M19.8585 39.4915C19.371 39.4915 18.9305 39.5771 18.5371 39.7481C18.1436 39.9107 17.81 40.1544 17.5363 40.4795C17.2626 40.7959 17.0531 41.1851 16.9076 41.647C16.7622 42.1003 16.6895 42.6135 16.6895 43.1866C16.6895 43.9393 16.805 44.5936 17.0359 45.1496C17.2754 45.7055 17.6261 46.1332 18.088 46.4326C18.5584 46.7319 19.1443 46.8816 19.8457 46.8816C20.2477 46.8816 20.6283 46.8474 20.9876 46.779C21.3468 46.7105 21.6975 46.625 22.0396 46.5224V47.5231C21.6975 47.6514 21.3425 47.7455 20.9747 47.8054C20.6155 47.8652 20.1836 47.8952 19.6789 47.8952C18.7466 47.8952 17.9683 47.7027 17.3439 47.3178C16.7195 46.9329 16.249 46.3855 15.9326 45.6756C15.6247 44.9657 15.4707 44.1317 15.4707 43.1737C15.4707 42.4809 15.5648 41.848 15.753 41.2749C15.9497 40.7018 16.2319 40.2057 16.5997 39.7866C16.9761 39.3675 17.438 39.0468 17.9854 38.8244C18.5328 38.5934 19.1614 38.478 19.8714 38.478C20.3418 38.478 20.7951 38.525 21.2313 38.6191C21.6676 38.7132 22.0567 38.8458 22.3989 39.0168L21.937 39.9919C21.6547 39.8636 21.3383 39.7481 20.9876 39.6455C20.6454 39.5429 20.2691 39.4915 19.8585 39.4915Z" fill="white"/>
</svg>
